<svg xmlns="http://www.w3.org/2000/svg" viewBox="298 -6 341 491">
  <g transform="rotate(-28 540 214)"><rect x="506" y="200" width="68" height="27" rx="11" fill="#FFE29B"/>
<defs><clipPath id="aface8_bpa"><rect x="506" y="200" width="68" height="27" rx="11"/></clipPath></defs>
<g clip-path="url(#aface8_bpa)"><rect x="527" y="200" width="26" height="27" fill="#FFF3D2"/>
<circle cx="533" cy="208" r="1.8" fill="#e0bd7a"/><circle cx="540" cy="215" r="1.8" fill="#e0bd7a"/><circle cx="547" cy="208" r="1.8" fill="#e0bd7a"/><circle cx="533" cy="219" r="1.8" fill="#e0bd7a"/><circle cx="547" cy="219" r="1.8" fill="#e0bd7a"/>
<path d="M512,200 V227 M519,200 V227 M561,200 V227 M568,200 V227" fill="none" stroke="#e8c98a" stroke-width="2.4" opacity="0.8"/></g>
<rect x="506" y="200" width="68" height="27" rx="11" fill="none" stroke="#C79A4A" stroke-width="5"/>
<path d="M527,200 V227 M553,200 V227" fill="none" stroke="#C79A4A" stroke-width="3.4"/></g><g transform="rotate(28 540 214)"><rect x="506" y="200" width="68" height="27" rx="11" fill="#FFE29B"/>
<defs><clipPath id="aface8_bpb"><rect x="506" y="200" width="68" height="27" rx="11"/></clipPath></defs>
<g clip-path="url(#aface8_bpb)"><rect x="527" y="200" width="26" height="27" fill="#FFF3D2"/>
<circle cx="533" cy="208" r="1.8" fill="#e0bd7a"/><circle cx="540" cy="215" r="1.8" fill="#e0bd7a"/><circle cx="547" cy="208" r="1.8" fill="#e0bd7a"/><circle cx="533" cy="219" r="1.8" fill="#e0bd7a"/><circle cx="547" cy="219" r="1.8" fill="#e0bd7a"/>
<path d="M512,200 V227 M519,200 V227 M561,200 V227 M568,200 V227" fill="none" stroke="#e8c98a" stroke-width="2.4" opacity="0.8"/></g>
<rect x="506" y="200" width="68" height="27" rx="11" fill="none" stroke="#C79A4A" stroke-width="5"/>
<path d="M527,200 V227 M553,200 V227" fill="none" stroke="#C79A4A" stroke-width="3.4"/></g>
</svg>
