<svg xmlns="http://www.w3.org/2000/svg" viewBox="298 -6 341 491">
  <ellipse cx="578" cy="268" rx="66" ry="56" fill="#5FC9C0" opacity="0.26" class="rvfb" style="animation:rvGlow 3.4s ease-in-out infinite"/>
<g class="rvfb" style="animation:rvFloat 4s ease-in-out infinite">
<path d="M534,222 L534,314 C534,322 542,326 552,326 L604,326 C612,326 618,322 618,314 L618,222 C618,214 612,210 604,210 L552,210 C542,210 534,214 534,222 Z" fill="#3F4C8C" stroke="#2b3566" stroke-width="7" stroke-linejoin="round"/>
<path d="M546,218 L608,218 L608,318 L546,318 Z" fill="#F7F3E8" stroke="#ded7c6" stroke-width="3"/>
<path d="M552,230 H602 M552,242 H594 M552,254 H602 M552,272 H602 M552,284 H590 M552,296 H602" fill="none" stroke="#c3bba8" stroke-width="3" stroke-linecap="round"/>
<path d="M576,210 V326" fill="none" stroke="#2b3566" stroke-width="6"/>
<circle cx="576" cy="264" r="16" fill="none" stroke="#7FE3DA" stroke-width="4.5"/>
<path d="M576,248 V280 M560,264 H592 M565,253 l22,22 M587,253 l-22,22" fill="none" stroke="#7FE3DA" stroke-width="3.4" stroke-linecap="round"/>
<path d="M598,210 V246 L606,238 L614,246 V210 Z" fill="#F5D97A" stroke="#C4900E" stroke-width="4.5" stroke-linejoin="round"/></g>
<g class="rvfb" style="animation:rvFloat 3.2s ease-in-out .5s infinite"><path d="M516,196 h20 M526,186 v20 M519,189 l14,14 M533,189 l-14,14" stroke="#7FE3DA" stroke-width="4" stroke-linecap="round"/></g>
<g class="rvfb" style="animation:rvFloat 4.6s ease-in-out 1s infinite"><path d="M626,176 h16 M634,168 v16 M628,170 l12,12 M640,170 l-12,12" stroke="#7FE3DA" stroke-width="3.6" stroke-linecap="round" opacity="0.85"/></g>
<path class="rvfb" style="animation:rvTwinkle 1.9s ease-in-out 1s infinite" d="M506,229 Q507.4,234.6 513,236 Q507.4,237.4 506,243 Q504.6,237.4 499,236 Q504.6,234.6 506,229 Z" fill="#7FE3DA" opacity="1"/><path class="rvfb" style="animation:rvTwinkle 1.9s ease-in-out 0s infinite" d="M636,218 Q637.2,222.8 642,224 Q637.2,225.2 636,230 Q634.8,225.2 630,224 Q634.8,222.8 636,218 Z" fill="#7FE3DA" opacity="1"/><defs><clipPath id="ahand10_pgr1" clipPathUnits="userSpaceOnUse"><ellipse cx="570" cy="358" rx="17" ry="14" transform="rotate(-24 570 358)"/></clipPath></defs><g clip-path="url(#ahand10_pgr1)"></g>
</svg>
