<svg xmlns="http://www.w3.org/2000/svg" viewBox="298 -6 341 491">
  <g transform="translate(576,366) scale(0.82) translate(-592,-392)"><path d="M592,254L597.8,260.5L602.2,267L604.3,273.5L603.6,280L600.6,286.5L595.7,293L590.3,299.5L585.4,306L582,312.5L581,319L582.3,325.5L585.6,332L590.2,338.5L595,345L599,351.5L601.3,358L601.6,364.5L599.8,371L596.4,377.5L592.2,384" fill="none" stroke="#9AA7B8" stroke-width="4.5" stroke-linecap="round"/>
<ellipse cx="601" cy="196" rx="40" ry="46" fill="#F2A2B8"/>
<defs><clipPath id="ahand0_b1"><ellipse cx="601" cy="196" rx="40" ry="46"/></clipPath></defs>
<g clip-path="url(#ahand0_b1)"><ellipse cx="620" cy="214" rx="34" ry="40" fill="#e58ea6"/>
<ellipse cx="586" cy="176" rx="13" ry="18" fill="#fff" opacity="0.75" transform="rotate(-18 586 176)"/>
<ellipse cx="580" cy="206" rx="5" ry="8" fill="#fff" opacity="0.45"/>
<path d="M566,214 C572,232 588,242 606,240" fill="none" stroke="#fff" stroke-width="5" opacity="0.3" stroke-linecap="round"/></g>
<ellipse cx="601" cy="196" rx="40" ry="46" fill="none" stroke="#D07A96" stroke-width="7"/>
<path d="M594,240 C596,248 606,248 608,240 C606,252 596,252 594,240 Z" fill="#D07A96"/>
<path d="M601,248 L595,258 L607,258 Z" fill="#c96e8b"/>
<ellipse cx="556" cy="238" rx="20" ry="23" fill="#F5C9D6" stroke="#D07A96" stroke-width="6"/>
<ellipse cx="549" cy="230" rx="6" ry="8" fill="#fff" opacity="0.7" transform="rotate(-18 549 230)"/>
<path d="M556,261 C566,300 578,340 588,378" fill="none" stroke="#9AA7B8" stroke-width="4" stroke-linecap="round"/></g><defs><clipPath id="ahand0_grip1" clipPathUnits="userSpaceOnUse"><ellipse cx="570" cy="358" rx="17" ry="14" transform="rotate(-24 570 358)"/></clipPath></defs><g clip-path="url(#ahand0_grip1)"></g>
</svg>
